<?xml version="1.0" encoding="iso-8859-1"?>
<!-- Generator: Adobe Illustrator 16.0.0, SVG Export Plug-In . SVG Version: 6.00 Build 0)  -->
<!DOCTYPE svg PUBLIC "-//W3C//DTD SVG 1.1//EN" "http://www.w3.org/Graphics/SVG/1.1/DTD/svg11.dtd">
<svg version="1.1" id="Capa_1" xmlns="http://www.w3.org/2000/svg" xmlns:xlink="http://www.w3.org/1999/xlink" x="0px" y="0px"
	 width="554.146px" height="554.146px" viewBox="0 0 554.146 554.146" style="enable-background:new 0 0 554.146 554.146;"
	 xml:space="preserve">
<g>
	<g>
		<path d="M243.595,315.907c-0.21-19.498-11.81-33.393-27.635-39.541c-4.925-1.912-9.18-2.726-9.18-2.859
			c0-0.144,4.074-1.635,8.692-4.207c14.363-7.994,21.764-20.578,21.764-35.133c0-20.062-14.717-39.35-47.21-39.35
			c-13.225,0-25.876,3.51-35.152,7.918c-4.771,2.266-6.904,8.405-5.221,12.89c1.683,4.485,6.541,5.595,11.303,3.3
			c6.933-3.348,15.73-6.082,24.748-6.082c20.569,0,28.936,11.676,28.936,24.882c0,19.555-20.559,27.922-36.815,27.922
			c0,0-2.783,0-6.216,0s-6.215,3.759-6.215,8.387s2.782,8.386,6.215,8.386h6.216c21.592,0,42.41,9.897,42.658,33
			c0.249,13.952-8.893,31.997-37.313,31.997c-10.604,0-20.646-2.889-27.999-5.93c-4.877-2.018-9.936-0.42-11.618,4.274
			c-1.683,4.695,0.564,10.854,5.431,12.91c8.807,3.71,21.019,6.77,34.425,6.77C222.768,365.422,243.595,342.318,243.595,315.907z"/>
		<path d="M390.331,212.135c5.04,1.578,10.146-0.555,11.686-5.526c1.54-4.982-1.1-10.845-6.168-12.326
			c-8.386-2.458-20.186-4.542-33.946-4.542c-57.375,0-92.67,37.312-92.67,88.356c0,26.651,9.142,49.496,23.868,63.725
			c16.754,15.989,38.078,22.577,63.974,22.577c17.395,0,32.914-3.165,43.748-6.35c5.068-1.491,9.065-7.324,9.065-12.604v-63.131
			c0-5.279-4.284-9.562-9.562-9.562h-37.246c-5.278,0-9.562,3.978-9.562,8.893c0,4.905,4.284,8.894,9.562,8.894h15.405
			c5.278,0,9.562,4.284,9.562,9.562v31.9c0,5.278-3.911,11.379-9.094,12.412c-5.25,1.052-12.049,1.721-20.358,1.721
			c-40.115,0-66.001-25.646-66.001-69.069c0-42.897,27.158-68.802,68.803-68.802C373.502,208.263,382.739,209.754,390.331,212.135z"
			/>
		<path d="M63.304,277.103c0,27.023,17.184,51.102,42.754,59.861c1.396,0.487,2.917,0.392,4.255-0.258
			c1.348-0.65,2.333-1.798,2.821-3.194c0.985-2.859-0.622-6.13-3.452-7.096c-21.047-7.229-35.19-27.042-35.19-49.304
			c0-20.378,11.972-38.996,30.476-47.459c1.779-0.803,3.605-1.511,5.432-2.113c2.314-0.745,3.863-2.878,3.863-5.307
			c0-0.593-0.096-1.157-0.277-1.74c-0.956-2.917-4.112-4.543-7.038-3.586c-2.276,0.745-4.504,1.606-6.627,2.581
			C77.838,229.778,63.304,252.374,63.304,277.103z"/>
		<path d="M31.03,277.103c0,38.489,22.912,73.067,58.36,88.062c2.84,1.176,6.129-0.153,7.325-2.984
			c1.157-2.782-0.22-6.148-2.964-7.324c-31.308-13.244-51.551-43.777-51.551-77.753c0-30.198,16.285-58.273,42.505-73.287
			c2.936-1.683,5.996-3.193,9.151-4.542c2.075-0.88,3.414-2.897,3.414-5.135c0-0.746-0.153-1.473-0.449-2.171
			c-0.583-1.387-1.664-2.467-3.041-3.012c-1.387-0.574-2.897-0.564-4.274,0.019c-3.548,1.492-7.019,3.232-10.347,5.135
			C49.467,211.112,31.03,242.927,31.03,277.103z"/>
		<path d="M77.332,393.756c2.821,1.195,6.11-0.153,7.325-2.984c1.176-2.802-0.239-6.167-2.974-7.324
			c-42.84-18.121-70.504-59.861-70.504-106.345c0-44.676,26.144-85.766,66.641-104.643c1.31-0.611,2.62-1.214,3.959-1.759
			c2.075-0.899,3.414-2.917,3.414-5.154c0-0.746-0.153-1.473-0.45-2.161c-0.583-1.387-1.645-2.448-3.021-3.013
			c-1.377-0.563-2.917-0.563-4.294,0.038c-1.453,0.594-2.897,1.253-4.332,1.903C28.697,183.046,0,228.095,0,277.103
			C-0.01,328.09,30.361,373.885,77.332,393.756z"/>
		<path d="M490.833,277.103c0-24.729-14.534-47.324-37.016-57.614c-2.133-0.966-4.352-1.826-6.627-2.581
			c-2.936-0.957-6.092,0.669-7.038,3.586c-0.191,0.583-0.277,1.138-0.277,1.74c0,2.429,1.549,4.552,3.863,5.307
			c1.826,0.593,3.662,1.311,5.432,2.113c18.513,8.463,30.485,27.081,30.485,47.459c0,22.262-14.144,42.075-35.19,49.304
			c-2.84,0.976-4.446,4.236-3.452,7.096c0.488,1.396,1.473,2.544,2.821,3.193c1.348,0.65,2.859,0.746,4.255,0.259
			C473.649,328.195,490.833,304.126,490.833,277.103z"/>
		<path d="M464.737,365.164c35.448-14.994,58.369-49.572,58.369-88.062c0-34.176-18.437-65.981-48.128-82.983
			c-3.327-1.902-6.799-3.644-10.347-5.135c-1.387-0.583-2.897-0.593-4.274-0.02c-1.377,0.545-2.467,1.626-3.041,3.013
			c-0.296,0.688-0.449,1.415-0.449,2.171c0,2.237,1.349,4.255,3.414,5.135c3.155,1.349,6.216,2.859,9.151,4.542
			c26.221,15.014,42.505,43.089,42.505,73.287c0,33.976-20.243,64.509-51.551,77.753c-2.745,1.176-4.131,4.542-2.975,7.324
			C458.617,365.011,461.907,366.34,464.737,365.164z"/>
		<path d="M476.806,393.756c46.971-19.871,77.341-65.666,77.341-116.653c0-49.008-28.706-94.057-73.105-114.788
			c-1.434-0.65-2.878-1.31-4.331-1.903c-1.377-0.593-2.917-0.593-4.294-0.038c-1.387,0.564-2.448,1.626-3.021,3.013
			c-0.297,0.688-0.45,1.415-0.45,2.161c0,2.237,1.349,4.255,3.414,5.154c1.349,0.545,2.649,1.138,3.959,1.759
			c40.487,18.887,66.642,59.967,66.642,104.643c0,46.483-27.665,88.233-70.505,106.345c-2.726,1.157-4.15,4.522-2.974,7.324
			C470.704,393.603,473.984,394.951,476.806,393.756z"/>
	</g>
</g>
<g>
</g>
<g>
</g>
<g>
</g>
<g>
</g>
<g>
</g>
<g>
</g>
<g>
</g>
<g>
</g>
<g>
</g>
<g>
</g>
<g>
</g>
<g>
</g>
<g>
</g>
<g>
</g>
<g>
</g>
</svg>
